<svg version="1.1"
     baseProfile="full"
     width="420" height="330"
     xmlns="http://www.w3.org/2000/svg">

  <style> .fonte { font: bold 12px arial;} </style>

  <rect width="100%" height="100%" fill="white" />

  <line x1="30" y1="50 " x2="30" y2="300" style="stroke:black"/>
  <line x1="25" y1="295" x2="390" y2="295" style="stroke:black"/>
  <line x1="390" y1="50" x2="390" y2="300" style="stroke:black"/>


  <line x1="70" y1="295" x2="70" y2="300" style="stroke:black"/>
  <line x1="110" y1="295" x2="110" y2="300" style="stroke:black"/>
  <line x1="150" y1="295" x2="150" y2="300" style="stroke:black"/>
  <line x1="190" y1="295" x2="190" y2="300" style="stroke:black"/>
  <line x1="230" y1="295" x2="230" y2="300" style="stroke:black"/>
  <line x1="270" y1="295" x2="270" y2="300" style="stroke:black"/>
  <line x1="310" y1="295" x2="310" y2="300" style="stroke:black"/>
  <line x1="350" y1="295" x2="350" y2="300" style="stroke:black"/>
  <line x1="390" y1="295" x2="390" y2="300" style="stroke:black"/>

  <line x1="25" y1="250" x2="30" y2="250" style="stroke:black"/>
  <line x1="25" y1="210" x2="30" y2="210" style="stroke:black"/>
  <line x1="25" y1="170" x2="30" y2="170" style="stroke:black"/>
  <line x1="25" y1="130" x2="30" y2="130" style="stroke:black"/>
  <line x1="25" y1="90" x2="30" y2="90" style="stroke:black"/>
  <line x1="25" y1="50" x2="390" y2="50" style="stroke:black"/>

  <text x="30" y="30" class="fonte" >Gráfico  - Autor: Maurício Silva Soares</text>

  <text x="15" y="300" class="fonte" >0</text>
  <text x="15" y="255" class="fonte" >5</text>
  <text x="8" y="215" class="fonte" >10</text>
  <text x="8" y="175" class="fonte" >15</text>
  <text x="8" y="135" class="fonte" >20</text>
  <text x="8" y="95" class="fonte" >25</text>
  <text x="8" y="55" class="fonte" >30</text>

  <text x="15" y="315" class="fonte" >1990</text>
  <text x="55" y="315" class="fonte" >1992</text>
  <text x="95" y="315" class="fonte" >1994</text>
  <text x="135" y="315" class="fonte" >1996</text>
  <text x="175" y="315" class="fonte" >1998</text>
  <text x="215" y="315" class="fonte" >2000</text>
  <text x="255" y="315" class="fonte" >2002</text>
  <text x="295" y="315" class="fonte" >2004</text>
  <text x="335" y="315" class="fonte" >2006</text>
  <text x="375" y="315" class="fonte" >2008</text>

  <path d="M 30 205 L 70 160 L 110 140 L 150 110 L 170 105 L 190 90
  L 210 115 L 230 109 L 250 111 L 270 80 L 290 85 L 350 115 L 390 110 "
   style="fill:none;stroke:blue;stroke-width:2"/>

  <path d="M 30 270 L 70 255 L 110 235 L 190 200
  L 210 210 L 250 190 L 270 165 L 310 175 L 330 177 L 350 183 L 370 185 L 390 179 "
   style="fill:none;stroke:red;stroke-width:2"/>

</svg>